<svg width="100%" height="100%" viewBox="-308.2951036734299 -585.451633984854 1105.1613482867576 758.9588054014081" xmlns="http://www.w3.org/2000/svg">

  <desc>
    This file was created using the PyToon package by Anthony D. Dutoi [https://github.com/adutoi/PyToon, tonydutoi@gmail.com].
  </desc>

  <path stroke="#0000FF" stroke-width="30" fill="none" d="M -140.95 51.303 L 140.95 -51.303"/>
  <circle fill="#FA8072" r="100" cx="-28.191" cy="10.261"/>
  <circle fill="#008000" fill-opacity="0.1" r="100" cx="28.191" cy="-10.261"/>
  <path stroke="#0000FF" stroke-width="30" fill="none" d="M -178.58 -52.063 L 103.33 -154.67"/>
  <circle fill="#FA8072" r="100" cx="-65.813" cy="-93.106"/>
  <circle fill="#008000" fill-opacity="0.2" r="100" cx="-9.4314" cy="-113.63"/>
  <path stroke="#0000FF" stroke-width="30" fill="none" d="M -216.2 -155.43 L 65.709 -258.04"/>
  <circle fill="#FA8072" r="100" cx="-103.44" cy="-196.47"/>
  <circle fill="#008000" fill-opacity="0.3" r="100" cx="-47.054" cy="-216.99"/>
  <path stroke="#0000FF" stroke-width="30" fill="none" d="M 140.95 -51.303 L 422.86 -153.91"/>
  <circle fill="#FA8072" r="100" cx="253.72" cy="-92.345"/>
  <circle fill="#008000" fill-opacity="0.4" r="100" cx="310.1" cy="-112.87"/>
  <path stroke="#0000FF" stroke-width="30" fill="none" d="M 103.33 -154.67 L 385.24 -257.28"/>
  <circle fill="#FA8072" r="100" cx="216.09" cy="-195.71"/>
  <circle fill="#008000" fill-opacity="0.5" r="100" cx="272.48" cy="-216.23"/>
  <path stroke="#0000FF" stroke-width="30" fill="none" d="M 65.709 -258.04 L 347.62 -360.64"/>
  <circle fill="#FA8072" r="100" cx="178.47" cy="-299.08"/>
  <circle fill="#008000" fill-opacity="0.6" r="100" cx="234.85" cy="-319.6"/>
  <path stroke="#0000FF" stroke-width="30" fill="none" d="M 422.86 -153.91 L 704.77 -256.52"/>
  <circle fill="#FA8072" r="100" cx="535.62" cy="-194.95"/>
  <circle fill="#008000" fill-opacity="0.7" r="100" cx="592.01" cy="-215.47"/>
  <path stroke="#0000FF" stroke-width="30" fill="none" d="M 385.24 -257.28 L 667.15 -359.88"/>
  <circle fill="#FA8072" r="100" cx="498" cy="-298.32"/>
  <circle fill="#008000" fill-opacity="0.8" r="100" cx="554.38" cy="-318.84"/>
  <path stroke="#0000FF" stroke-width="30" fill="none" d="M 347.62 -360.64 L 629.53 -463.25"/>
  <circle fill="#FA8072" r="100" cx="460.38" cy="-401.68"/>
  <circle fill="#008000" fill-opacity="0.9" r="100" cx="516.76" cy="-422.21"/>

</svg>
